<?xml version="1.0" encoding="utf-8"?><svg version="1.1" id="Layer_1" xmlns="http://www.w3.org/2000/svg" xmlns:xlink="http://www.w3.org/1999/xlink" x="0px" y="0px" viewBox="0 0 122.88 122.39" style="enable-background:new 0 0 122.88 122.39" xml:space="preserve"><style type="text/css"><![CDATA[
	.st0{fill-rule:evenodd;clip-rule:evenodd;}
]]></style><g><path class="st0" d="M4.59,122.39h113.7c2.52,0,4.59-2.08,4.59-4.63l-0.11-36.56c-0.01-2.49-0.36-3.78-1.26-6.11l-17.93-61.16 c-0.81-2.12-1.86-4.12-4.12-4.12H85.71v14.66h6.5l16.19,53.89l0,0H84.5l-10.91,14.7H49.38l-11-14.7H14.3l16.87-53.89h6V9.8H24.22 c-2.27,0-3.28,2.02-4.12,4.12L1.15,75.86c-0.91,2.28-1,3.58-1.01,6.06L0,117.76C0,120.31,2.07,122.39,4.59,122.39L4.59,122.39 L4.59,122.39z M52.74,0h17.41v37.46h14L61.46,63.47L38.73,37.46h14V0L52.74,0L52.74,0z"/></g></svg>